<svg xmlns="http://www.w3.org/2000/svg" xmlns:xlink="http://www.w3.org/1999/xlink" width="332" zoomAndPan="magnify" viewBox="0 0 249 248.999984" height="332" preserveAspectRatio="xMidYMid meet" version="1.0"><defs><g/></defs><g fill="#f9dc4a" fill-opacity="1"><g transform="translate(17.829395, 153.756007)"><g><path d="M 22.65625 0.75 C 15.351562 0.75 10.078125 -1.054688 6.828125 -4.671875 C 3.585938 -8.296875 1.96875 -14.132812 1.96875 -22.1875 L 1.96875 -30.046875 L 17.78125 -30.046875 L 17.78125 -20.03125 C 17.78125 -16.039062 19.0625 -14.046875 21.625 -14.046875 C 23.0625 -14.046875 24.0625 -14.46875 24.625 -15.3125 C 25.1875 -16.15625 25.46875 -17.570312 25.46875 -19.5625 C 25.46875 -22.1875 25.15625 -24.359375 24.53125 -26.078125 C 23.90625 -27.796875 23.109375 -29.226562 22.140625 -30.375 C 21.171875 -31.53125 19.441406 -33.328125 16.953125 -35.765625 L 10.015625 -42.6875 C 4.648438 -47.9375 1.96875 -53.742188 1.96875 -60.109375 C 1.96875 -66.972656 3.539062 -72.195312 6.6875 -75.78125 C 9.84375 -79.375 14.445312 -81.171875 20.5 -81.171875 C 27.738281 -81.171875 32.953125 -79.25 36.140625 -75.40625 C 39.328125 -71.570312 40.921875 -65.566406 40.921875 -57.390625 L 24.53125 -57.390625 L 24.4375 -62.921875 C 24.4375 -63.972656 24.140625 -64.8125 23.546875 -65.4375 C 22.953125 -66.0625 22.125 -66.375 21.0625 -66.375 C 19.8125 -66.375 18.875 -66.03125 18.25 -65.34375 C 17.632812 -64.664062 17.328125 -63.734375 17.328125 -62.546875 C 17.328125 -59.921875 18.820312 -57.203125 21.8125 -54.390625 L 31.171875 -45.40625 C 33.359375 -43.28125 35.171875 -41.265625 36.609375 -39.359375 C 38.046875 -37.460938 39.195312 -35.21875 40.0625 -32.625 C 40.9375 -30.039062 41.375 -26.96875 41.375 -23.40625 C 41.375 -15.476562 39.921875 -9.46875 37.015625 -5.375 C 34.117188 -1.289062 29.332031 0.75 22.65625 0.75 Z M 22.65625 0.75 "/></g></g></g><g fill="#f9dc4a" fill-opacity="1"><g transform="translate(55.838971, 153.756007)"><g><path d="M 17.421875 0.75 C 13.109375 0.75 10.140625 -0.15625 8.515625 -1.96875 C 6.890625 -3.78125 6.078125 -6.679688 6.078125 -10.671875 L 6.078125 -53.453125 L 1.5 -53.453125 L 1.5 -65.90625 L 6.078125 -65.90625 L 6.078125 -80.421875 L 22 -80.421875 L 22 -65.90625 L 26.6875 -65.90625 L 26.6875 -53.453125 L 22 -53.453125 L 22 -14.984375 C 22 -13.796875 22.09375 -12.921875 22.28125 -12.359375 C 22.46875 -11.796875 22.96875 -11.515625 23.78125 -11.515625 C 24.40625 -11.515625 25 -11.546875 25.5625 -11.609375 C 26.125 -11.671875 26.5 -11.703125 26.6875 -11.703125 L 26.6875 -0.46875 C 25.75 -0.21875 24.390625 0.046875 22.609375 0.328125 C 20.828125 0.609375 19.097656 0.75 17.421875 0.75 Z M 17.421875 0.75 "/></g></g></g><g fill="#f9dc4a" fill-opacity="1"><g transform="translate(79.24383, 153.756007)"><g><path d="M 23.21875 0.75 C 9.550781 0.75 2.71875 -6.332031 2.71875 -20.5 L 2.71875 -48.03125 C 2.71875 -54.519531 4.539062 -59.679688 8.1875 -63.515625 C 11.84375 -67.359375 16.851562 -69.28125 23.21875 -69.28125 C 29.582031 -69.28125 34.585938 -67.359375 38.234375 -63.515625 C 41.890625 -59.679688 43.71875 -54.519531 43.71875 -48.03125 L 43.71875 -20.5 C 43.71875 -6.332031 36.882812 0.75 23.21875 0.75 Z M 23.21875 -11.890625 C 24.53125 -11.890625 25.5 -12.359375 26.125 -13.296875 C 26.75 -14.234375 27.0625 -15.515625 27.0625 -17.140625 L 27.0625 -50.65625 C 27.0625 -54.644531 25.78125 -56.640625 23.21875 -56.640625 C 20.65625 -56.640625 19.375 -54.644531 19.375 -50.65625 L 19.375 -17.140625 C 19.375 -15.515625 19.6875 -14.234375 20.3125 -13.296875 C 20.9375 -12.359375 21.90625 -11.890625 23.21875 -11.890625 Z M 23.21875 -11.890625 "/></g></g></g><g fill="#f9dc4a" fill-opacity="1"><g transform="translate(120.623641, 153.756007)"><g><path d="M 3.28125 -68.53125 L 19.65625 -68.53125 L 19.65625 -60.953125 C 20.46875 -63.628906 21.890625 -65.703125 23.921875 -67.171875 C 25.953125 -68.640625 28.460938 -69.375 31.453125 -69.375 L 31.453125 -55.703125 C 29.148438 -55.703125 26.609375 -55.375 23.828125 -54.71875 C 21.046875 -54.0625 19.65625 -53.300781 19.65625 -52.4375 L 19.65625 0 L 3.28125 0 Z M 3.28125 -68.53125 "/></g></g></g><g fill="#f9dc4a" fill-opacity="1"><g transform="translate(147.679696, 153.756007)"><g><path d="M 1.96875 1.03125 L 9.828125 1.03125 C 10.953125 1.03125 11.515625 0.5625 11.515625 -0.375 C 11.515625 -0.8125 11.484375 -1.15625 11.421875 -1.40625 L 0.75 -68.53125 L 16.390625 -68.53125 L 19.46875 -35.109375 L 20.96875 -18.0625 L 22.75 -35.109375 L 26.40625 -68.53125 L 42.125 -68.53125 L 29.390625 3.5625 C 28.960938 6.238281 28.078125 8.21875 26.734375 9.5 C 25.390625 10.78125 23.28125 11.421875 20.40625 11.421875 L 1.96875 11.421875 Z M 1.96875 1.03125 "/></g></g></g><g fill="#f9dc4a" fill-opacity="1"><g transform="translate(185.689266, 153.756007)"><g><path d="M 1.21875 0 L 9.828125 -42.6875 L 3 -80.515625 L 18.71875 -80.515625 L 22.9375 -52.796875 L 26.59375 -80.515625 L 42.40625 -80.515625 L 35.484375 -42.6875 L 44.09375 0 L 27.8125 0 L 22.75 -31.453125 L 17.59375 0 Z M 1.21875 0 "/></g></g></g></svg>