<svg xmlns="http://www.w3.org/2000/svg" xmlns:xlink="http://www.w3.org/1999/xlink" width="180" zoomAndPan="magnify" viewBox="0 0 135 44.999999" height="60" preserveAspectRatio="xMidYMid meet" version="1.0"><defs><g/></defs><g fill="#f9dc4a" fill-opacity="1"><g transform="translate(22.71356, 35.376092)"><g><path d="M 9.515625 0.3125 C 6.453125 0.3125 4.238281 -0.445312 2.875 -1.96875 C 1.507812 -3.488281 0.828125 -5.9375 0.828125 -9.3125 L 0.828125 -12.625 L 7.46875 -12.625 L 7.46875 -8.40625 C 7.46875 -6.726562 8.003906 -5.890625 9.078125 -5.890625 C 9.679688 -5.890625 10.097656 -6.066406 10.328125 -6.421875 C 10.566406 -6.773438 10.6875 -7.375 10.6875 -8.21875 C 10.6875 -9.320312 10.554688 -10.234375 10.296875 -10.953125 C 10.035156 -11.671875 9.703125 -12.269531 9.296875 -12.75 C 8.890625 -13.238281 8.160156 -13.992188 7.109375 -15.015625 L 4.203125 -17.921875 C 1.953125 -20.128906 0.828125 -22.566406 0.828125 -25.234375 C 0.828125 -28.117188 1.488281 -30.3125 2.8125 -31.8125 C 4.132812 -33.320312 6.066406 -34.078125 8.609375 -34.078125 C 11.648438 -34.078125 13.835938 -33.269531 15.171875 -31.65625 C 16.503906 -30.050781 17.171875 -27.53125 17.171875 -24.09375 L 10.296875 -24.09375 L 10.265625 -26.421875 C 10.265625 -26.867188 10.140625 -27.222656 9.890625 -27.484375 C 9.640625 -27.742188 9.289062 -27.875 8.84375 -27.875 C 8.320312 -27.875 7.925781 -27.726562 7.65625 -27.4375 C 7.394531 -27.144531 7.265625 -26.753906 7.265625 -26.265625 C 7.265625 -25.160156 7.894531 -24.019531 9.15625 -22.84375 L 13.09375 -19.0625 C 14.007812 -18.175781 14.769531 -17.332031 15.375 -16.53125 C 15.976562 -15.726562 16.460938 -14.78125 16.828125 -13.6875 C 17.191406 -12.601562 17.375 -11.316406 17.375 -9.828125 C 17.375 -6.492188 16.765625 -3.96875 15.546875 -2.25 C 14.328125 -0.539062 12.316406 0.3125 9.515625 0.3125 Z M 9.515625 0.3125 "/></g></g></g><g fill="#f9dc4a" fill-opacity="1"><g transform="translate(38.672161, 35.376092)"><g><path d="M 7.3125 0.3125 C 5.5 0.3125 4.253906 -0.0664062 3.578125 -0.828125 C 2.898438 -1.585938 2.5625 -2.804688 2.5625 -4.484375 L 2.5625 -22.453125 L 0.625 -22.453125 L 0.625 -27.671875 L 2.5625 -27.671875 L 2.5625 -33.765625 L 9.234375 -33.765625 L 9.234375 -27.671875 L 11.203125 -27.671875 L 11.203125 -22.453125 L 9.234375 -22.453125 L 9.234375 -6.296875 C 9.234375 -5.796875 9.269531 -5.425781 9.34375 -5.1875 C 9.425781 -4.945312 9.640625 -4.828125 9.984375 -4.828125 C 10.242188 -4.828125 10.492188 -4.84375 10.734375 -4.875 C 10.972656 -4.90625 11.128906 -4.921875 11.203125 -4.921875 L 11.203125 -0.203125 C 10.804688 -0.0976562 10.234375 0.0078125 9.484375 0.125 C 8.742188 0.25 8.019531 0.3125 7.3125 0.3125 Z M 7.3125 0.3125 "/></g></g></g><g fill="#f9dc4a" fill-opacity="1"><g transform="translate(48.498864, 35.376092)"><g><path d="M 9.75 0.3125 C 4.007812 0.3125 1.140625 -2.660156 1.140625 -8.609375 L 1.140625 -20.171875 C 1.140625 -22.890625 1.90625 -25.054688 3.4375 -26.671875 C 4.96875 -28.285156 7.070312 -29.09375 9.75 -29.09375 C 12.425781 -29.09375 14.53125 -28.285156 16.0625 -26.671875 C 17.59375 -25.054688 18.359375 -22.890625 18.359375 -20.171875 L 18.359375 -8.609375 C 18.359375 -2.660156 15.488281 0.3125 9.75 0.3125 Z M 9.75 -5 C 10.300781 -5 10.707031 -5.191406 10.96875 -5.578125 C 11.226562 -5.972656 11.359375 -6.507812 11.359375 -7.1875 L 11.359375 -21.265625 C 11.359375 -22.941406 10.820312 -23.78125 9.75 -23.78125 C 8.675781 -23.78125 8.140625 -22.941406 8.140625 -21.265625 L 8.140625 -7.1875 C 8.140625 -6.507812 8.269531 -5.972656 8.53125 -5.578125 C 8.789062 -5.191406 9.195312 -5 9.75 -5 Z M 9.75 -5 "/></g></g></g><g fill="#f9dc4a" fill-opacity="1"><g transform="translate(65.872484, 35.376092)"><g><path d="M 1.375 -28.78125 L 8.25 -28.78125 L 8.25 -25.59375 C 8.59375 -26.71875 9.191406 -27.585938 10.046875 -28.203125 C 10.898438 -28.816406 11.953125 -29.125 13.203125 -29.125 L 13.203125 -23.390625 C 12.234375 -23.390625 11.164062 -23.25 10 -22.96875 C 8.832031 -22.695312 8.25 -22.378906 8.25 -22.015625 L 8.25 0 L 1.375 0 Z M 1.375 -28.78125 "/></g></g></g><g fill="#f9dc4a" fill-opacity="1"><g transform="translate(77.232168, 35.376092)"><g><path d="M 0.828125 0.4375 L 4.125 0.4375 C 4.59375 0.4375 4.828125 0.238281 4.828125 -0.15625 C 4.828125 -0.34375 4.816406 -0.488281 4.796875 -0.59375 L 0.3125 -28.78125 L 6.875 -28.78125 L 8.171875 -14.75 L 8.8125 -7.59375 L 9.546875 -14.75 L 11.09375 -28.78125 L 17.6875 -28.78125 L 12.34375 1.5 C 12.15625 2.625 11.78125 3.453125 11.21875 3.984375 C 10.65625 4.523438 9.769531 4.796875 8.5625 4.796875 L 0.828125 4.796875 Z M 0.828125 0.4375 "/></g></g></g><g fill="#f9dc4a" fill-opacity="1"><g transform="translate(93.190767, 35.376092)"><g><path d="M 0.515625 0 L 4.125 -17.921875 L 1.265625 -33.8125 L 7.859375 -33.8125 L 9.625 -22.171875 L 11.171875 -33.8125 L 17.8125 -33.8125 L 14.90625 -17.921875 L 18.515625 0 L 11.671875 0 L 9.546875 -13.203125 L 7.390625 0 Z M 0.515625 0 "/></g></g></g></svg>